<svg xmlns="http://www.w3.org/2000/svg" viewBox="0 0 48 48" fill="none" aria-hidden="true">
  <circle cx="24" cy="24" r="22" fill="#E8F9D0"/>
  <circle cx="24" cy="26" r="14" fill="#58CC02"/>
  <ellipse cx="24" cy="30" rx="9" ry="7" fill="#46A302"/>
  <circle cx="18" cy="22" r="5.5" fill="#fff"/>
  <circle cx="30" cy="22" r="5.5" fill="#fff"/>
  <circle cx="19" cy="22" r="2.8" fill="#4B4B4B"/>
  <circle cx="31" cy="22" r="2.8" fill="#4B4B4B"/>
  <circle cx="20" cy="21" r="1" fill="#fff"/>
  <circle cx="32" cy="21" r="1" fill="#fff"/>
  <path d="M24 28c-2 0-3.5 1.2-3.5 2.5 0 1.8 3.5 1.8 3.5 1.8s3.5 0 3.5-1.8C27.5 29.2 26 28 24 28z" fill="#FFB020"/>
  <path d="M16 14c2-4 6-6 8-6s6 2 8 6c-2 1-5 1.5-8 1.5S18 15 16 14z" fill="#46A302"/>
  <path d="M12 18c-3 2-4 5-3 7 2-1 4-2 6-2s4 1 6 2c1-2 0-5-3-7-1.5 1-3.5 1.5-6 1.5S13.5 19 12 18z" fill="#58CC02"/>
  <path d="M36 18c3 2 4 5 3 7-2-1-4-2-6-2s-4 1-6 2c-1-2 0-5 3-7 1.5 1 3.5 1.5 6 1.5s4.5-.5 6-1.5z" fill="#58CC02"/>
  <path d="M20 8h8l-1 4h-6l-1-4z" fill="#1CB0F6"/>
  <rect x="19" y="6" width="10" height="3" rx="1.5" fill="#1CB0F6"/>
  <path d="M14 36h20l-2 4H16l-2-4z" fill="#1CB0F6" opacity="0.9"/>
</svg>
